<?xml version="1.0" encoding="utf-8"?>
<!-- Generator: Adobe Illustrator 23.0.5, SVG Export Plug-In . SVG Version: 6.00 Build 0)  -->
<svg version="1.1" id="Capa_1" xmlns="http://www.w3.org/2000/svg" xmlns:xlink="http://www.w3.org/1999/xlink" x="0px" y="0px"
	 viewBox="0 0 1000 456.7" style="enable-background:new 0 0 1000 456.7;" xml:space="preserve">
<style type="text/css">
	.st0{fill:#FF4B2B;}
	.st1{fill:#494949;}
</style>
<g>
	<g>
		<path class="st0" d="M807.5,307.2c0,31.3-14.2,51.2-50.9,51.2c-13.9,0-32.2-2.3-44.8-4.8v65.1l-27.1,3.9V198.2h22.9l2.3,14.2
			c12.9-10.3,31.3-17.4,51.9-17.4c30.9,0,45.8,16.4,45.8,48V307.2z M711.8,329.7c14.5,2.9,32.2,4.8,43.2,4.8
			c18,0,25.5-8.4,25.5-27.4V243c0-16.1-5.2-24.2-24.2-24.2c-15.5,0-32.9,8.4-44.5,18.7V329.7z"/>
		<path class="st0" d="M976.1,307.2c0,31.3-14.2,51.2-50.9,51.2c-13.9,0-32.2-2.3-44.8-4.8v65.1l-27.1,3.9V198.2h22.9l2.3,14.2
			c12.9-10.3,31.3-17.4,51.9-17.4c30.9,0,45.8,16.4,45.8,48V307.2z M880.3,329.7c14.5,2.9,32.2,4.8,43.2,4.8
			c18,0,25.5-8.4,25.5-27.4V243c0-16.1-5.2-24.2-24.2-24.2c-15.5,0-32.9,8.4-44.5,18.7V329.7z"/>
		<g>
			<path class="st0" d="M345.8,365c-10.6,0-19.2,8.6-19.2,19.1c0,10.5,8.6,19.2,19.1,19.2c10.6,0.1,19.3-8.7,19.3-19.3
				C365,373.6,356.4,365,345.8,365z"/>
			<path class="st0" d="M463.5,365c-10.6,0-19.2,8.5-19.3,19.1c-0.1,10.5,8.6,19.2,19.1,19.3c10.5,0.1,19.2-8.6,19.3-19.1
				C482.6,373.7,474,365,463.5,365z"/>
			<path class="st0" d="M650,355.4l-31.4-125.9c0-0.1,0-0.1-0.1-0.2c-0.4-1.8-0.9-3.6-1.3-5.4l-13.1-52.4c-0.1-0.2-0.2-0.5-0.2-0.8
				c-0.5-2.1-1-4.2-1.5-6.3l-1.4-5.8c-1.4-5.5-2.8-11.1-4.3-16.6c-1.2-4.5-4.8-7.2-9.4-7.3c-0.8,0-1.5,0-2.3,0
				c-10.4,0-20.9,0-31.3,0c-9.3,0-8.2,0-20.7,0c-0.8,0-1.5,0-2.3,0c-4.7,0.1-8.3,2.8-9.4,7.3c-2.5,9.5-4.9,19.1-7.2,28.6
				c-0.5,1.9-1.2,2.5-3.1,2.5c-73.6-0.1-147.2,0-220.9,0c-1.3,0-2.7,0-4,0.3c-5.2,1.2-8.3,6.4-7.1,11.6
				c5.5,22.2,11.1,44.4,16.6,66.6c3.7,14.7,7.3,29.4,11,44.1c0.4,1.5,0.8,3,1.2,4.4c1.1,4,4.4,6.8,8.5,7.2c1,0.1,2,0.1,3.1,0.1
				c52.5,0,105,0,157.5,0c0.9,0,1.8,0,3,0c-1.8,7.3-3.5,14.2-5.3,21.1c-0.5,2-1,4-1.4,6c-0.3,1.3-0.9,1.9-2.2,1.7
				c-0.5-0.1-1,0-1.5,0c-47.6,0-95.2,0-142.8,0c-0.8,0-1.7,0-2.5,0c-5.2,0.2-9.3,4.1-9.5,9.2c-0.1,5.3,3.6,9.4,8.9,9.9
				c0.6,0.1,1.3,0,1.9,0c51.2,0,102.3,0,153.5,0c1.1,0,2-0.1,2.9-0.2h13.6l17.4-51.6h91.2l17.7,51.6H636c0.9,0.2,1.9,0.2,2.9,0.2
				C642.7,355.4,646.3,355.4,650,355.4z M309.8,228.7c-2.8-11.6-5.7-23.2-8.6-34.8c-0.1-0.5-0.1-1-0.2-1.5c12.8,0,25.4,0,38.3,0
				c1.5,12.8,3.1,25.4,4.6,38.2c-0.8,0-1.5,0.1-2.1,0.1c-9.8,0-19.7,0-29.5,0C310.6,230.8,310.1,230.2,309.8,228.7z M349.5,288.3
				c-7.9,0-15.7,0-23.6,0c-1.3,0-1.6-0.7-1.8-1.7c-2.8-11.5-5.7-23.1-8.6-34.6c-0.2-0.6-0.2-1.3-0.4-2.1c10.1,0,20,0,29.8,0
				c1.2,0,1.3,0.7,1.4,1.6c0.7,5.7,1.4,11.4,2.1,17.1c0.8,6.5,1.5,12.9,2.3,19.5C350.3,288.2,349.9,288.3,349.5,288.3z M394.9,288.2
				c-8.3,0-16.4,0-24.8,0c-1.5-12.8-3-25.4-4.6-38.1c10,0,19.6,0,29.4,0C394.9,262.8,394.9,275.5,394.9,288.2z M395,230.6
				c-0.5,0.1-0.7,0.2-0.9,0.2c-9.8,0-19.6,0-29.3,0c-1.4,0-1.5-0.7-1.7-1.7c-0.9-7.9-1.9-15.7-2.9-23.6c-0.5-4.3-1-8.6-1.5-12.9
				c12.2,0,24.2,0,36.3,0C395,205.3,395,217.9,395,230.6z M470.7,192.5c12.6,0,25.1,0,37.7,0c-0.1,0.6-0.1,1.1-0.3,1.5
				c-2.9,11.8-5.9,23.5-8.8,35.3c-0.3,1.2-0.9,1.5-2,1.5c-9.9,0-19.8,0-29.7,0c-0.6,0-1.1-0.1-1.9-0.1
				C467.5,217.8,469.1,205.2,470.7,192.5z M439.1,288.2c-8.4,0-16.5,0-24.7,0V250c9.9,0,19.6,0,29.6,0
				C442.4,262.9,440.7,275.5,439.1,288.2z M446.7,229.4c-0.2,1.4-1,1.4-2,1.4c-7,0-13.9,0-20.9,0c-3.1,0-6.1,0-9.4,0
				c0-13,0-25.6,0-38.2c12.4,0,24.6,0,37,0C449.8,204.9,448.2,217.2,446.7,229.4z M459.9,288.3c-0.4,0-0.7-0.1-1.4-0.2
				c1.6-12.7,3.2-25.3,4.9-38.1c10.3,0,20.4,0,30.6,0c0,0.4,0.1,0.7,0,1c-3,12-6,24-9,36.1c-0.3,1-0.8,1.2-1.8,1.2
				C475.5,288.3,467.7,288.3,459.9,288.3z M520.4,279.5l38.3-118.9l38.3,118.9H520.4z"/>
		</g>
	</g>
	<g>
		<path class="st1" d="M58.1,74.3h-33V56.5c30,0,55.5,0,85.6,0v17.8h-33v86.2H58.1V74.3z"/>
		<path class="st1" d="M139.6,66.6c0,14.1-21.4,14.1-21.4,0S139.6,52.5,139.6,66.6z M119.8,86.9v73.6H138V86.9H119.8z"/>
		<path class="st1" d="M169.8,130.4c1.2,9.1,9.1,15.6,21.9,15.6c6.7,0,15.5-2.5,19.6-6.8l11.6,11.4c-7.7,8-20.4,11.9-31.5,11.9
			c-25.3,0-40.3-15.6-40.3-39.1c0-22.3,15.2-38.4,39-38.4c24.5,0,39.8,15.2,37,45.3H169.8z M209.7,115.3c-1.2-9.5-8.6-14.3-19-14.3
			c-9.8,0-17.8,4.8-20.5,14.3H209.7z"/>
		<path class="st1" d="M295,160.5v-38.4c0-11.2-6.1-19.6-17.7-19.6c-11.2,0-18.7,9.4-18.7,20.5v37.5h-18V87.1h16.2l1.2,10
			c7.4-7.3,14.9-11,24.1-11c17.2,0,31.1,12.9,31.1,36v38.5H295z"/>
		<path class="st1" d="M404.9,56.6v103.9h-16.9l-1.2-10.1c-5.6,8.8-14.7,11.7-23.6,11.7c-21.6,0-37.8-14.3-37.8-38.4
			c0-25.3,15.9-38.4,37.3-38.4c7.7,0,19.8,4.2,24.1,11.7V56.6H404.9z M343.5,123.8c0,12.8,9.2,21.6,20.8,21.6
			c11.4,0,21.3-8.3,21.3-21.6c0-12.8-9.8-21.4-21.3-21.4C352.7,102.4,343.5,110.6,343.5,123.8z"/>
		<path class="st1" d="M440.4,66.6c0,14.1-21.4,14.1-21.4,0S440.4,52.5,440.4,66.6z M420.6,86.9v73.6h18.1V86.9H420.6z"/>
		<path class="st1" d="M480.7,66.6v20.8h20.2V103h-20.4v31.7c0,7,3.9,10.4,9.5,10.4c2.8,0,6.1-0.9,8.8-2.2l5.1,15.5
			c-5.2,2.1-9.5,3-15,3.1c-15.9,0.6-26.3-8.5-26.3-26.8V103h-13.7V87.4h13.7V68.5L480.7,66.6z"/>
	</g>
</g>
</svg>
